<svg
  xmlns="http://www.w3.org/2000/svg"
  viewBox="0 0 1024 1024"
  width="1024"
  height="1024"
  data-theme-lock="true"
>
<defs>
<linearGradient id="vapor" x1="0" y1="0" x2="0" y2="1">
  <stop offset="0%" stop-color="#52ffe5"/>
  <stop offset="50%" stop-color="#a06bff"/>
  <stop offset="100%" stop-color="#ff5ec3"/>
</linearGradient>
</defs>
<g fill="url(#vapor)" stroke="#050509" stroke-width="4" stroke-linejoin="miter" fill-rule="evenodd">
  <path d="M442,82 L440,82 L405,170 L389,205 L386,214 L362,265 L364,316 L365,317 L365,354 L364,355 L364,399 L363,400 L363,426 L362,427 L361,464 L355,468 L353,468 L330,479 L289,494 L263,501 L258,500 L259,415 L260,414 L260,387 L261,386 L262,364 L264,358 L265,348 L270,331 L277,317 L286,306 L286,303 L278,300 L267,293 L257,283 L252,276 L246,263 L243,251 L242,236 L241,235 L241,204 L242,203 L242,192 L243,191 L243,184 L244,183 L247,159 L255,127 L267,94 L265,94 L248,115 L238,130 L221,162 L214,179 L206,205 L206,209 L202,224 L202,230 L199,245 L199,255 L198,256 L198,268 L199,269 L199,281 L198,282 L196,282 L167,252 L139,217 L118,188 L116,188 L128,222 L142,252 L142,254 L164,296 L173,310 L188,338 L197,363 L201,382 L203,404 L204,405 L204,416 L200,417 L181,397 L159,377 L129,356 L125,355 L125,357 L141,375 L152,390 L167,414 L185,449 L195,477 L199,497 L199,503 L200,504 L201,541 L200,542 L200,553 L199,554 L198,569 L193,590 L186,610 L196,607 L197,611 L184,639 L162,670 L137,697 L107,724 L81,744 L81,746 L105,738 L130,726 L132,726 L165,709 L186,696 L197,688 L202,689 L202,731 L203,732 L204,750 L205,751 L205,758 L206,759 L206,765 L208,771 L210,786 L217,814 L236,870 L251,905 L268,939 L270,939 L270,936 L262,907 L252,857 L252,851 L249,836 L249,828 L248,827 L248,818 L247,817 L247,802 L246,801 L246,765 L247,764 L248,745 L254,720 L260,710 L268,703 L279,699 L279,696 L272,690 L265,677 L260,655 L260,644 L259,643 L259,555 L261,553 L326,536 L354,526 L359,526 L360,527 L359,643 L358,644 L358,655 L357,656 L356,668 L352,680 L347,688 L338,696 L338,698 L347,699 L363,706 L381,719 L414,753 L439,785 L466,824 L468,824 L438,734 L426,684 L424,665 L423,664 L423,656 L422,655 L422,641 L421,640 L423,560 L424,559 L424,550 L425,549 L426,537 L429,525 L440,495 L451,475 L463,457 L483,432 L500,414 L500,412 L493,415 L466,433 L429,460 L424,465 L421,465 L419,462 L419,436 L420,435 L422,397 L423,396 L424,381 L425,380 L426,368 L431,343 L433,339 L439,315 L451,281 L473,229 L473,227 L470,228 L441,268 L423,296 L416,311 L414,313 L411,312 L411,276 L412,275 L412,260 L413,259 L413,248 L414,247 L415,232 L416,231 L420,201 L433,140 Z"/>
  <path d="M816,48 L813,49 L801,150 L800,151 L798,169 L793,195 L787,218 L781,235 L769,255 L757,267 L743,275 L743,278 L746,284 L748,292 L749,307 L750,308 L749,331 L744,353 L735,375 L716,414 L716,416 L699,450 L688,468 L685,468 L682,464 L675,447 L668,425 L660,388 L658,366 L657,365 L657,350 L656,349 L656,316 L657,315 L658,298 L664,278 L671,266 L679,257 L679,255 L657,234 L640,210 L615,161 L615,159 L606,142 L589,103 L587,103 L597,156 L620,253 L620,258 L623,271 L623,278 L624,279 L624,286 L625,287 L627,319 L626,320 L623,319 L614,296 L597,267 L590,258 L573,241 L542,219 L520,208 L508,204 L508,206 L523,224 L536,247 L543,265 L548,289 L549,324 L548,325 L548,361 L547,362 L547,394 L546,395 L546,492 L547,493 L548,571 L549,572 L549,631 L548,632 L547,670 L546,671 L546,678 L545,679 L541,705 L525,765 L504,830 L506,830 L539,784 L564,752 L583,730 L607,708 L618,702 L630,698 L634,698 L634,696 L630,694 L621,684 L615,670 L612,655 L611,622 L610,621 L610,584 L609,583 L609,552 L608,551 L604,405 L607,404 L611,409 L630,447 L630,449 L640,468 L650,491 L665,533 L673,564 L678,596 L679,597 L683,634 L684,635 L684,643 L685,644 L686,665 L689,665 L689,658 L690,657 L690,651 L691,650 L691,644 L692,643 L692,637 L694,630 L694,624 L695,623 L699,594 L713,536 L722,509 L726,501 L726,498 L740,465 L757,431 L763,421 L767,420 L768,421 L767,425 L767,650 L766,651 L765,667 L761,682 L752,699 L746,704 L746,707 L751,708 L760,713 L767,720 L772,731 L774,741 L774,748 L775,749 L775,763 L776,764 L776,799 L775,800 L774,828 L773,829 L773,837 L772,838 L769,865 L763,895 L761,900 L761,904 L759,908 L759,912 L755,924 L752,939 L754,939 L776,892 L789,858 L802,816 L811,780 L816,754 L818,729 L819,728 L819,714 L820,713 L820,689 L824,688 L857,708 L891,725 L927,740 L930,740 L936,743 L944,745 L944,743 L936,738 L902,710 L871,678 L856,658 L848,645 L834,614 L834,607 L836,605 L836,603 L847,583 L848,579 L867,546 L883,523 L883,521 L880,521 L867,530 L849,545 L829,564 L825,563 L826,511 L827,510 L829,491 L836,465 L846,441 L871,393 L892,360 L910,336 L910,334 L908,334 L884,353 L827,405 L823,404 L823,390 L824,389 L826,371 L831,353 L842,329 L867,288 L890,246 L892,240 L894,238 L894,236 L910,202 L926,155 L924,155 L901,193 L872,234 L861,247 L832,275 L829,275 L828,274 L829,241 L830,240 L829,176 L828,175 L828,159 L827,158 L825,123 L824,122 L823,104 L822,103 L822,95 L821,94 Z"/>
</g>
</svg>
